<?xml version="1.0" standalone="no"?><!DOCTYPE svg PUBLIC "-//W3C//DTD SVG 1.1//EN" "http://www.w3.org/Graphics/SVG/1.1/DTD/svg11.dtd"><svg t="1667476961315" class="icon" viewBox="0 0 1024 1024" version="1.1" xmlns="http://www.w3.org/2000/svg" p-id="1725" xmlns:xlink="http://www.w3.org/1999/xlink" width="200" height="200"><path d="M542.72 237.1072S196.0448 184.32 122.0608 419.2768s106.1376 477.6448 364.6976 477.3888c215.04-0.2048 447.744-76.5952 436.9408-369.2544S629.4016 228.352 542.72 237.1072z" fill="#FF9566" p-id="1726"></path><path d="M774.8096 831.232c-280.7296 42.7008-432.4352-70.656-477.5936-119.1424-121.1392-156.7232-117.8624-315.5968-103.2192-401.664-31.5392 26.6752-57.1904 62.0544-71.936 108.9024-74.0352 234.9568 106.1376 477.6448 364.6976 477.3888 101.1712-0.1536 206.2336-17.1008 288.0512-65.4848z" fill="#F27E51" p-id="1727"></path><path d="M514.816 912.3328c-9.6256 0-19.0464-0.1024-28.3648-0.3072-132.3008-2.56-250.9312-63.5392-325.5296-167.3216-69.5808-96.8192-89.088-217.1392-53.5552-330.0352 32.1024-101.9392 118.6304-167.5264 250.2144-189.7472 90.4192-15.2576 171.6224-5.2224 185.4976-3.328 36.7616-3.4816 200.8576-12.8 307.712 83.712 58.4704 52.7872 88.1664 127.488 88.2688 222.0032 0.1536 128.768-31.3856 222.3616-96.3584 286.1568-85.8624 84.3776-216.5248 98.8672-327.8848 98.8672zM462.8992 247.6544c-103.1168 0-278.0672 23.5008-326.1952 176.2816-32.6144 103.5776-14.6944 213.9648 49.2032 302.848 68.864 95.8464 178.6368 152.1664 301.1584 154.5728 110.8992 2.1504 249.0368-6.0928 334.1312-89.6512 58.7776-57.7024 87.296-144.1792 87.1424-264.2432-0.1024-85.504-26.368-152.5248-78.1312-199.2704-101.3248-91.4944-267.3664-77.6192-285.952-75.776-1.28 0.1536-2.56 0.1024-3.84-0.1024-0.9728-0.1536-32.4096-4.6592-77.5168-4.6592z" fill="#000F04" p-id="1728"></path><path d="M520.6016 409.4976s-19.4048 19.0976-56.4224 23.7568c-37.0176 4.6592-120.064 34.5088-148.9408 23.296s-64.1024 4.6592-71.3216 22.3744c-20.7872-13.9776-43.3152-76.4416-5.4272-110.9504 19.8656-15.872 16.2304-28.928 13.5168-43.8272s11.7248-35.4304 72.2432-42.9056c29.7984-2.816 30.208-24.0128 16.896-37.632-13.312-13.6704-20.5312-22.016-4.3008-37.888 16.2304-15.872 12.6464-32.6144 12.6464-32.6144s66.816-10.24 94.7712 10.24c28.0064 20.5312 77.6192 61.8496 96.6144 48.64 18.944-13.2096 100.1984-57.9584 184.1664-22.528s156.16 12.1344 156.16 12.1344-6.2976 61.5424-35.2256 76.4416c-28.8768 14.8992 0 51.3024-72.2432 50.3296 50.5344 38.2464 35.2256 76.4416 22.5792 91.392-12.6464 14.8992 6.7584 59.648 2.2528 65.7408-15.8208-2.3552-93.9008-25.1904-98.8672-49.408-4.9664-24.2176-43.776-47.5648-59.136-46.1312-15.36 1.3824-47.4112 26.112-55.808 68.352-30.0032-8.6528-71.936-19.0976-64.1536-68.8128z" fill="#BFE5BD" p-id="1729"></path><path d="M821.9648 265.7792c-35.5328 8.0896-75.2128 34.816-95.6928 17.408-20.48-17.408-82.432-52.224-105.3184-54.6816-16.2816-1.792-30.0544-12.3392-36.7104-18.2784-20.8896 7.8336-36.352 16.9984-43.3664 21.8624-11.4176 7.936-33.8944-3.84-56.1152-18.944-24.32 4.608-54.2208 8.2432-76.288 4.1984-30.1056-5.5296-50.5856 20.1216-60.5184 36.864 4.608 12.0832-0.9216 25.0368-23.7568 27.1872-4.4032 0.5632-8.5504 1.1776-12.4928 1.8432l-20.0192 10.5984s-18.0736 53.4528 10.8544 70.8608 35.5328 37.9392 35.5328 37.9392-99.8912 11.3664-92.672 73.4208c9.728-16.4352 42.5472-29.9008 69.7856-19.3536 28.8768 11.2128 111.9232-18.6368 148.9408-23.296 37.0176-4.6592 56.4224-23.7568 56.4224-23.7568-7.8336 49.7152 34.1504 60.16 64.256 68.864 8.448-42.2912 40.4992-66.9696 55.808-68.352 15.36-1.3824 54.1696 21.9136 59.136 46.1312 4.6592 22.8864 74.496 44.4928 95.5904 48.8448 0 0-51.6608-60.16-58.2656-88.7808-6.6048-28.5696-15.6672-37.9392-13.2608-56.576l2.4064-18.6368 47.5648 7.4752c72.2432 0.9216 43.3152-35.4304 72.2432-50.3296 25.1904-13.0048 33.2288-61.44 34.8672-73.6256-16.4352 16.6912-39.2192 36.608-58.9312 41.1136z" fill="#A2DD9E" p-id="1730"></path><path d="M798.6688 520.9088c-0.7168 0-1.4848-0.0512-2.2528-0.1536-1.024-0.1536-103.4752-21.4528-111.6672-61.5424-3.2768-15.9744-33.7408-33.9456-42.496-33.9456h-0.256c-7.2704 0.6656-34.7648 19.456-42.0864 56.064a15.5136 15.5136 0 0 1-7.0656 10.1376 15.36 15.36 0 0 1-12.2368 1.6384l-2.7648-0.8192c-23.3472-6.7072-63.0272-18.1248-71.7824-55.296-10.2912 4.864-23.6544 9.472-39.936 11.52-11.3664 1.4336-28.5184 5.6832-46.6944 10.24-50.3296 12.544-87.6544 20.736-109.7728 12.1856-21.248-8.2432-47.616 4.2496-51.5584 13.824-1.7408 4.3008-5.3248 7.5264-9.728 8.9088-4.4032 1.3312-9.216 0.6144-13.056-1.9456-16.7424-11.264-30.3616-39.5776-32.4096-67.328-1.9968-27.0848 6.9632-51.0976 25.1904-67.6864 0.256-0.2048 0.512-0.4608 0.768-0.6656 11.6736-9.3184 10.8544-13.7216 8.448-26.8288l-0.4096-2.2528c-1.7408-9.6768 0.7168-19.6608 7.0144-28.16 12.3392-16.7936 38.7584-27.8016 78.4896-32.7168 8.96-0.8704 11.5712-3.3792 11.776-3.84 0.256-0.7168-0.2048-3.9936-3.9424-7.8336-11.8784-12.1856-31.744-32.5632-3.9936-59.5968 9.4208-9.1648 8.3968-17.8688 8.2432-18.8416-0.8704-4.1472 0-8.2432 2.4064-11.7248 2.4064-3.4816 6.1952-5.632 10.3424-6.2464 7.4752-1.1264 74.0352-10.5472 106.1888 13.056 3.5328 2.6112 7.424 5.5296 11.5712 8.6528 15.36 11.5712 56.0128 42.0864 67.4816 39.5264 7.168-4.9152 99.328-65.7408 198.6048-23.8592 7.8336 3.2768 11.4688 12.288 8.192 20.1216a15.37024 15.37024 0 0 1-20.1216 8.192c-85.76-36.1984-168.6016 20.4288-169.4208 20.992-25.7024 17.8688-66.8672-13.1072-103.2192-40.448-4.0448-3.0208-7.8336-5.888-11.264-8.3968-14.0288-10.24-46.8992-11.1104-70.912-8.96-1.6384 8.6528-6.0416 19.5584-16.7424 29.952-3.0208 2.9696-4.1984 4.7616-4.5568 5.5296 1.2288 2.5088 6.5024 7.936 9.1136 10.5984 11.4176 11.7248 15.5648 26.9824 10.8032 39.8848-2.8672 7.8336-11.5712 21.3504-37.2736 23.7568-42.9056 5.2736-54.528 16.9472-57.0368 20.3776-1.8432 2.5088-1.5872 3.9936-1.4848 4.5056l0.4096 2.1504c2.7648 14.9504 6.5536 35.3792-19.0464 56.1152-13.9264 12.9024-15.8208 30.208-14.9504 42.4448 0.9216 12.9024 5.2224 24.7808 9.984 33.0752 18.5856-15.4112 50.0224-23.4496 77.2096-12.9536 14.7456 5.7344 60.7744-5.7344 91.2384-13.312 19.0464-4.7616 37.0688-9.216 50.2784-10.9056 30.8736-3.8912 47.5136-19.4048 47.6672-19.5584 4.7616-4.5568 11.9296-5.5808 17.7664-2.5088 5.8368 3.072 9.1136 9.4208 8.0896 15.9232-4.5056 28.5184 11.008 38.4512 38.4512 47.2576 13.7728-39.1168 45.4144-62.6688 65.0752-64.4608 22.8864-2.2016 68.9152 25.9584 75.5712 58.368 3.5328 9.2672 39.4752 24.4224 65.8944 32.4096-4.096-18.9952-8.0384-41.4208 3.9424-55.552 2.4576-2.8672 10.24-13.4144 8.6528-28.1088-1.536-14.0288-11.2128-27.8016-28.7744-41.0624-5.2736-3.9936-7.424-10.9568-5.2736-17.2544a15.4368 15.4368 0 0 1 14.5408-10.3936h0.2048c34.7648 0.4608 37.4272-6.912 41.2672-18.0224 3.2768-9.4208 7.7312-22.3232 23.7056-30.5664 11.0592-5.7344 18.7392-25.4464 23.0912-42.9568-19.712 3.072-50.0736 5.2736-85.76-0.9728a15.40096 15.40096 0 0 1-12.4928-17.7664 15.43168 15.43168 0 0 1 17.7664-12.4928c53.9136 9.4208 94.5664-3.1232 94.9248-3.2768 4.9664-1.5872 10.3424-0.5632 14.336 2.7136 3.9936 3.2768 6.144 8.3456 5.5808 13.4656-0.7168 7.168-8.192 70.3488-43.4176 88.5248-4.6592 2.4064-5.9904 5.2224-8.7552 13.3632-5.2224 15.1552-12.4416 29.1328-36.3008 35.3792 9.0624 11.9296 14.3872 24.6272 15.872 37.9392 2.9696 26.9312-11.3152 46.1312-15.7184 51.3536-2.7136 4.7104 1.7408 25.1392 3.4304 32.8192 3.1744 14.592 5.3248 24.2688-0.6144 32.1536a15.616 15.616 0 0 1-12.3392 6.0928z" fill="#000F04" p-id="1731"></path><path d="M421.7856 244.9408s34.304 18.6368 50.5344 15.872c16.2304-2.816 85.76-10.5984 113.7664 0.3072s31.5904 26.7776 64.9728 20.224 53.248-2.816 53.248-2.816-20.7872 13.056-15.36 28.928c5.4272 15.872 21.6576 41.0112-3.6352 61.5424s-86.6816 10.24-107.4176 31.6928c-20.7872 21.4528-120.9856-24.2176-142.6432-15.872-21.6576 8.3968-79.4624-10.24-74.0352-33.5872 5.4272-23.296-20.7872-78.336 19.8656-82.0736 40.704-3.6864 40.704-24.2176 40.704-24.2176z" fill="#CF9782" p-id="1732"></path><path d="M557.8752 421.7344c-19.5072 0-43.9808-6.4-69.3248-13.056-16.5888-4.352-41.6768-10.9056-48.0768-9.472-20.736 8.0384-61.184-1.1264-81.3568-18.6368-14.7968-12.8512-14.336-26.112-12.8-32.8704 1.0752-4.5568-0.256-14.4384-1.4336-23.1424-2.6112-19.4048-5.5808-41.3696 6.7072-56.7296 6.5024-8.1408 15.9744-12.8512 28.16-13.9776 19.712-1.792 25.856-7.8336 26.7264-10.24a15.38048 15.38048 0 0 1 22.6304-12.2368c14.0288 7.6288 34.1504 15.36 40.6016 14.2336 0.8192-0.1536 85.504-13.056 121.9072 1.1264 10.5984 4.1472 18.2272 8.9088 24.32 12.7488 10.8032 6.8096 15.7696 9.9328 32.1536 6.7072 35.8912-7.0144 58.112-2.9696 59.0336-2.816 6.1952 1.1776 11.0592 6.0416 12.2368 12.2368s-1.5872 12.4928-6.912 15.872c-4.8128 3.1232-9.6768 8.96-9.0112 10.9056 0.7168 2.1504 1.6896 4.4544 2.7136 6.912 6.7072 16.384 19.1488 46.9504-11.1616 71.5264-15.7696 12.8-39.168 15.7696-61.8496 18.6368-17.5104 2.2016-37.376 4.7616-44.2368 11.8272-7.2192 7.6288-18.0224 10.4448-31.0272 10.4448zM442.5728 368.384c12.4928 0 29.5424 4.2496 53.76 10.5984 20.2752 5.3248 62.4128 16.3328 70.8096 10.752 14.1312-14.592 38.5536-17.7152 62.208-20.736 18.3808-2.3552 37.376-4.7616 46.336-12.032 11.4176-9.2672 9.4208-18.1248 2.0992-36.0448-1.2288-3.072-2.4064-5.9392-3.328-8.6016a31.50336 31.50336 0 0 1-0.5632-18.8928c-5.8368 0.512-12.4928 1.4336-19.8656 2.8672-28.3648 5.5296-41.5744-2.816-54.4256-10.8544-5.5296-3.4816-11.2128-7.0656-19.0976-10.1376-22.0672-8.6016-84.48-3.1232-105.5744 0.512-13.7216 2.3552-32.8704-4.4544-46.4896-10.5472-7.3216 8.448-20.8896 16.7936-45.9264 19.0976-2.4576 0.2048-5.632 0.8192-6.9632 2.5088-4.096 5.1712-1.792 22.2208-0.3072 33.4848 1.6384 12.2368 3.2256 23.7568 1.024 33.6896 0.6656 1.28 3.8912 5.1712 12.6464 9.3696 16.2304 7.7824 34.6624 9.2672 40.7552 6.912 3.7888-1.28 7.9872-1.9456 12.9024-1.9456z m-36.1472-123.4432z m0-0.0512z m0 0z" fill="#000F04" p-id="1733"></path><path d="M488.5504 102.2976s22.5792 13.056 37.9392 7.4752c2.7136 32.6144 6.5536 78.4384 23.1936 93.2352 16.5888 14.7968 28.2624 89.4976 27.392 111.872-0.9216 13.056 0.0512 19.5584 0.0512 19.5584s-90.3168 20.2752-97.536 3.6352c-7.2192-16.6912 9.0112-20.3776 17.152-37.1712s27.0848-65.28 7.2192-99.7888c-19.9168-34.5088-17.2032-81.1008-15.4112-98.816z" fill="#CF9782" p-id="1734"></path><path d="M504.9856 360.0384c-32.6656 0-37.3248-10.752-39.5264-15.872-8.5504-19.7632 2.6624-32 9.4208-39.3216 3.1232-3.3792 6.0416-6.6048 8.0384-10.6496 11.9808-24.7808 21.1968-62.0032 7.7312-85.4016-20.9408-36.352-19.8144-83.3024-17.3056-108.032 0.512-5.1712 3.6352-9.728 8.2944-12.1344 4.608-2.3552 10.1376-2.2528 14.6432 0.3584 6.9632 3.9424 19.456 8.3456 24.9856 6.3488 4.5056-1.6384 9.5232-1.0752 13.5168 1.4848 4.0448 2.56 6.6048 6.912 7.0144 11.6736 1.9456 23.4496 5.9904 72.2432 18.1248 83.0464 23.04 20.5312 33.28 104.3456 32.512 123.9552-0.768 11.264-0.1024 16.8448-0.0512 16.896 1.024 7.8848-4.096 15.3088-11.8784 17.0496-34.816 7.7824-58.8288 10.5984-75.52 10.5984z m-10.496-31.0784c11.4688 1.4336 38.7584-1.3824 66.8672-6.912 0.0512-2.4576 0.1536-5.2224 0.3584-8.2432 1.024-25.4464-12.3392-90.4704-22.272-99.3792-17.4592-15.5648-23.1424-48.64-26.9312-88.2176-3.3792-0.3584-6.656-0.9728-9.7792-1.7408-0.2048 20.3264 2.304 47.8208 14.4896 68.9664 24.4736 42.496 1.0752 98.0992-6.7072 114.1248-3.9424 8.1408-9.216 13.8752-13.056 18.0224-0.9216 1.0752-2.0992 2.304-2.9696 3.3792zM704.3584 802.2016a15.36 15.36 0 0 1-12.9024-7.0144 15.36 15.36 0 0 1 4.5056-21.248c50.2784-32.6656 84.7872-74.9056 102.6048-125.4912a15.32928 15.32928 0 0 1 19.6096-9.3696c7.9872 2.816 12.1856 11.5712 9.3696 19.6096-19.8144 56.3712-59.5456 105.1648-114.8416 141.056-2.6112 1.6896-5.4784 2.4576-8.3456 2.4576zM825.7536 607.8976c-0.3072 0-0.6144 0-0.9728-0.0512a15.36 15.36 0 0 1-14.3872-16.2816c0.5632-9.2672 0.1536-14.7968 0.1536-14.848a15.39584 15.39584 0 0 1 14.08-16.5376 15.35488 15.35488 0 0 1 16.5376 13.9776c0.0512 0.768 0.6144 7.7312-0.1024 19.2512-0.512 8.192-7.2704 14.4896-15.3088 14.4896z" fill="#000F04" p-id="1735"></path></svg>